<?xml version="1.0" encoding="UTF-8"?>
<svg version="1.1" xmlns="http://www.w3.org/2000/svg" width="291" height="282">
<path d="M0 0 C96.03 0 192.06 0 291 0 C291 93.06 291 186.12 291 282 C194.97 282 98.94 282 0 282 C0 188.94 0 95.88 0 0 Z " fill="#597C99" transform="translate(0,0)"/>
<path d="M0 0 C0.99 0.66 1.98 1.32 3 2 C4.93302287 14.31828297 0.00705381 23.30104713 -7 33 C-9.12912847 35.5466784 -11.32214914 37.99803575 -13.59375 40.41796875 C-15.54273364 42.50932945 -17.42099138 44.63055092 -19.2890625 46.79296875 C-21.76082006 49.63336256 -24.29811139 52.37739353 -26.9296875 55.0703125 C-27.579375 55.73933594 -28.2290625 56.40835938 -28.8984375 57.09765625 C-30.23149582 58.46496311 -31.57287165 59.82420347 -32.921875 61.17578125 C-35.69987122 64.05976527 -37.72619551 66.24192209 -39.09765625 70.0390625 C-38.97252066 73.83317363 -37.94776238 76.72114732 -36.5625 80.25 C-34 86.86920981 -34 86.86920981 -34 89 C-32.88625 87.7315625 -32.88625 87.7315625 -31.75 86.4375 C-29 84 -29 84 -27 83.875 C-24.0384463 85.54087396 -22.11521816 87.3408686 -20 90 C-19.8125 92.375 -19.8125 92.375 -21 95 C-22.01942993 96.18614635 -23.06342899 97.35141498 -24.125 98.5 C-26.57740834 101.07998003 -26.57740834 101.07998003 -27.0625 104.5 C-26.711875 105.325 -26.36125 106.15 -26 107 C-25.74992188 107.61488281 -25.49984375 108.22976562 -25.2421875 108.86328125 C-24.52928474 110.59016705 -23.76805281 112.29692637 -23 114 C-22.4225 113.484375 -21.845 112.96875 -21.25 112.4375 C-19 111 -19 111 -17.0625 111 C-13.96656363 112.50106006 -12.13420367 114.3170011 -10 117 C-9.8125 119.4375 -9.8125 119.4375 -11 122 C-12.01769782 123.00405575 -13.06199445 123.98154184 -14.125 124.9375 C-16.68395771 127.27563649 -16.68395771 127.27563649 -17.125 130.6875 C-15.14928634 136.50487911 -13.08684981 142.27214999 -10.8125 147.98046875 C-10.44125 148.93566406 -10.07 149.89085937 -9.6875 150.875 C-9.34074219 151.73867187 -8.99398437 152.60234375 -8.63671875 153.4921875 C-7.87876828 156.47748937 -8.02395581 158.08581093 -9 161 C-10.55859375 163.23828125 -10.55859375 163.23828125 -12.4375 165.3125 C-13.36369141 166.35857422 -13.36369141 166.35857422 -14.30859375 167.42578125 C-16 169 -16 169 -18 169 C-19.234375 167.296875 -19.234375 167.296875 -20.75 164.75 C-24.13294407 159.28148834 -27.73447592 154.00660351 -31.4375 148.75 C-32.03304687 147.9038916 -32.62859375 147.0577832 -33.2421875 146.18603516 C-34.50291099 144.39505454 -35.76382121 142.60420536 -37.02490234 140.81347656 C-39.75975318 136.91775085 -42.47376609 133.0077157 -45.18701172 129.09692383 C-47.8504835 125.25994844 -50.5230084 121.42931206 -53.19482422 117.59814453 C-54.84949069 115.2166243 -56.49102959 112.82667502 -58.12890625 110.43359375 C-59.02309693 109.14299314 -59.91759955 107.85260856 -60.8125 106.5625 C-61.20276367 105.98322754 -61.59302734 105.40395508 -61.99511719 104.80712891 C-63.16006932 103.09040536 -63.16006932 103.09040536 -65 101 C-68.28890178 100.66746549 -68.28890178 100.66746549 -70.9675293 103.64282227 C-72.17731741 104.85988351 -73.37899903 106.085035 -74.57421875 107.31640625 C-75.21688187 107.96568588 -75.85954498 108.61496552 -76.52168274 109.28392029 C-78.58414161 111.3698327 -80.63624649 113.46557227 -82.6875 115.5625 C-84.72249988 117.63277354 -86.7596725 119.70083658 -88.79975891 121.76609802 C-90.0687085 123.05176574 -91.33454423 124.34051754 -92.59660339 125.63294983 C-98.11589468 131.24347841 -103.69470328 136.82554473 -110.5625 140.75 C-112.97204714 142.54655081 -113.89229281 143.28961659 -114.34765625 146.29296875 C-114.09813971 149.2565249 -113.58057307 152.08288746 -113 155 C-110.3477096 173.22257074 -110.3477096 173.22257074 -111 179 C-113.5 182.0625 -113.5 182.0625 -116 184 C-119.43317333 182.85560889 -119.64190648 182.40041252 -121.33984375 179.39453125 C-121.76330078 178.65783203 -122.18675781 177.92113281 -122.62304688 177.16210938 C-123.05681641 176.38673828 -123.49058594 175.61136719 -123.9375 174.8125 C-124.79912257 173.29723271 -125.66237824 171.78289276 -126.52734375 170.26953125 C-127.14778564 169.17825928 -127.14778564 169.17825928 -127.78076172 168.06494141 C-128.8943415 166.17894666 -130.07294228 164.3761738 -131.31640625 162.57421875 C-133 160 -133 160 -133 158 C-134.3921875 158.7734375 -134.3921875 158.7734375 -135.8125 159.5625 C-139 161 -139 161 -142 160 C-141.47731534 157.23723823 -140.89130413 154.6739124 -140 152 C-140.70664795 151.88664307 -141.4132959 151.77328613 -142.14135742 151.65649414 C-145.25343802 150.94179735 -147.84429257 149.8424949 -150.73828125 148.49609375 C-151.80498047 148.00302734 -152.87167969 147.50996094 -153.97070312 147.00195312 C-155.62489258 146.22754883 -155.62489258 146.22754883 -157.3125 145.4375 C-158.43462891 144.91736328 -159.55675781 144.39722656 -160.71289062 143.86132812 C-163.47752951 142.57900626 -166.23975766 141.29175153 -169 140 C-167.71056207 137.12356154 -166.64394258 134.78314847 -164 133 C-161.40736053 132.87464988 -159.04680487 132.91356066 -156.47265625 133.0859375 C-140.93626956 134.34380589 -140.93626956 134.34380589 -126.33886719 130.50683594 C-122.41259556 126.74391588 -120.19644684 122.16260681 -118.04785156 117.22412109 C-116.43241398 113.79526827 -114.19055451 110.99143104 -111.8125 108.0625 C-110.60400391 106.50789063 -110.60400391 106.50789063 -109.37109375 104.921875 C-106.43166604 101.29964778 -103.33319968 97.85409539 -100.17578125 94.421875 C-95.79762697 89.54852553 -91.63502158 84.45253237 -88 79 C-88.50748779 78.76925781 -89.01497559 78.53851563 -89.5378418 78.30078125 C-99.09660151 73.93007535 -108.3408765 69.50585678 -117.140625 63.7265625 C-120.31849562 61.80768434 -123.58267955 60.44094388 -127 59 C-128.35673756 58.20533943 -129.69521348 57.37735646 -131 56.5 C-133.92131609 54.61203664 -136.7801942 53.23511718 -140.01953125 51.9453125 C-143.6682409 50.20371933 -146.96297462 47.85039431 -150.34375 45.64453125 C-153.48229204 43.70140449 -156.57541883 42.35556338 -160 41 C-160.99 40.34 -161.98 39.68 -163 39 C-161.38911971 34.81171125 -158.70106796 31.50224377 -155 29 C-147.96822921 27.73197576 -141.69112316 30.06094141 -135.02807617 32.2199707 C-129.61861133 34.0596927 -129.61861133 34.0596927 -124 34 C-121.89565138 32.28429733 -121.89565138 32.28429733 -120.1875 30 C-119.28064453 28.88625 -119.28064453 28.88625 -118.35546875 27.75 C-117.68451172 26.88375 -117.68451172 26.88375 -117 26 C-112.18942244 26.736974 -110.06749487 28.1205212 -107 32 C-107.08763771 35.06731977 -107.81352381 35.81352381 -110 38 C-105.05 39.65 -100.1 41.3 -95 43 C-94.34 41.68 -93.68 40.36 -93 39 C-91.23032148 36.69059548 -89.36178869 34.70865206 -87 33 C-83.58779578 32.83751408 -82.35440148 33.73886206 -79.625 35.75 C-78 38 -78 38 -78.125 40.5625 C-79 43 -79 43 -81 46 C-78.06530499 46.77769418 -75.12826331 47.52661197 -72.17578125 48.234375 C-70.32860837 48.67969589 -68.48717245 49.15462137 -66.66796875 49.703125 C-64.42910975 50.35095344 -64.42910975 50.35095344 -61 50 C-58.1141155 47.80255542 -56.16069981 44.88655991 -54 42 C-47.18495586 33.65593955 -39.99302213 25.7439475 -32.4375 18.0625 C-31.28749512 16.87370239 -31.28749512 16.87370239 -30.11425781 15.66088867 C-21.9610138 7.48088158 -12.13571595 -0.89894192 0 0 Z " fill="#FCFCFD" transform="translate(226,51)"/>
</svg>
